<svg width="22" height="24" viewBox="0 0 22 24" fill="none" xmlns="http://www.w3.org/2000/svg">
<path  d="M6.86508 9.67817C11.4141 8.09769 12.1884 3.98061 11.6077 0.195248C11.6077 0.0586628 11.7238 -0.0388982 11.8399 0.000126177C16.1954 2.14647 21.0928 6.8294 21.0928 13.8538C21.0928 19.2392 16.9503 24.0001 10.9301 24.0001C8.78198 24.0986 6.66245 23.4731 4.9061 22.2225C3.14974 20.9719 1.85659 19.1672 1.23075 17.0935C0.604902 15.0198 0.682004 12.795 1.44989 10.7703C2.21777 8.74563 3.6327 7.03637 5.47135 5.91232C5.58749 5.83427 5.74235 5.91232 5.74235 6.04891C5.80042 6.77086 5.994 8.58549 6.78765 9.67817H6.86508Z" fill="url(#paint0_linear_351_2158)"/>
<defs>
<linearGradient id="paint0_linear_351_2158" x1="2028.92" y1="-0.00854492" x2="-339.004" y2="1999.42" gradientUnits="userSpaceOnUse">
<stop stop-color="#FF7854"/>
<stop offset="1" stop-color="#FD267D"/>
</linearGradient>
</defs>
</svg>
