<?xml version="1.0" ?><svg id="Layer_1" style="enable-background:new 0 0 75.88372 46.5509;" version="1.1" viewBox="0 0 75.88372 46.5509" xml:space="preserve" xmlns="http://www.w3.org/2000/svg" xmlns:xlink="http://www.w3.org/1999/xlink"><style type="text/css">
	.st0{opacity:0.5;fill:#231F20;enable-background:new    ;}
	.st1{fill:#FFFFFF;}
	.st2{fill:#22093A;stroke:#22093A;stroke-linecap:round;stroke-linejoin:round;}
	.st3{fill:#E9022C;stroke:#22093A;stroke-linecap:round;stroke-linejoin:round;}
	.st4{fill:none;stroke:#FFFFFF;stroke-linecap:round;stroke-linejoin:round;}
</style><g id="Layer_2_00000157987050183944129620000009780076427600127653_"><g id="Layer_1-2"><path class="st0" d="M75.29528,21.33264c0.923828-7.13427,0.980469-11.8291-1.460938-14.71484    c-0.057617-0.06787-0.117188-0.13525-0.177727-0.20117c-0.259644-0.535882-0.584358-1.037714-0.966797-1.49414    C71.093033,3.206293,68.836937,2.25726,66.493523,2.316c-3.428349-0.156571-6.655811,1.619308-8.358398,4.59912    C57.959339,6.725707,57.7803,6.539999,57.598,6.358C54.126331,2.89856,49.32946,0.903,45.07946,1.1593    c-3.521259,0.137719-6.910576,1.376729-9.69046,3.54248c-1.056458-1.578706-2.772102-2.592861-4.664551-2.75732    c-2.815464-0.251901-5.610559,0.665613-7.729,2.53711c-1.314135,1.181854-2.391396,2.602958-3.174311,4.1875    C18.692137,7.415795,17.32925,6.395065,15.809,5.66419c-2.242258-1.060651-4.820733-1.158201-7.136721-0.27    C1.60485,8.046,0.37,26.294069,2.08141,34.951778c0.384486,2.586956,1.410652,5.036457,2.98487,7.125    c2.13085,3.87989,5.1538,4.474121,6.801751,4.474121H11.871l0.22754-0.00341    c2.654367-0.040695,5.156783-1.245663,6.843751-3.29541c0.638014-0.774113,1.170029-1.629787,1.582001-2.544441    c3.51416,3.893559,6.936531,4.411621,9.38623,4.025391c2.47673-0.468887,4.61058-2.02829,5.80957-4.245602    c2.988659,2.470379,6.784962,3.748913,10.65918,3.58984c3.107468-0.16848,6.114361-1.159653,8.712891-2.87207    c0.06543,0.080078,0.13184,0.15918,0.20118,0.237789c0.127094,0.252567,0.267258,0.498341,0.419922,0.736328    c1.243183,1.938576,3.210346,3.299129,5.462891,3.77832c4.685593,1.010872,9.30349-1.968075,10.314362-6.653667    c0.485657-2.251122,0.056747-4.60297-1.192291-6.537731c-0.036133-0.055672-0.072273-0.11084-0.110352-0.166    C72.433998,30.69788,74.51989,27.31506,75.29528,21.33264z"/><path class="st1" d="M73.900589,20.19537c0.923828-7.13427,0.980469-11.8291-1.46093-14.71484    c-0.057617-0.06787-0.117188-0.13525-0.177742-0.20117c-0.259644-0.535882-0.584351-1.037714-0.966789-1.49414    c-1.596794-1.716177-3.852882-2.665194-6.196289-2.60645c-3.428349-0.156571-6.655811,1.619308-8.358398,4.59912    c-0.175785-0.189454-0.35482-0.375163-0.537109-0.55713c-3.47168-3.45947-8.268562-5.45507-12.518562-5.19876    c-3.521248,0.137726-6.910553,1.376736-9.69043,3.54248c-1.056461-1.578695-2.772104-2.592839-4.664549-2.75729    c-2.815464-0.251901-5.610559,0.665612-7.729,2.53711c-1.314135,1.181856-2.391397,2.60296-3.17432,4.1875    c-1.129017-1.253283-2.491925-2.274014-4.012199-3.00488c-2.242258-1.060651-4.820732-1.158201-7.13672-0.27    C0.21016,6.90875-1.0247,25.156799,0.68673,33.81451c0.384483,2.586956,1.410646,5.036453,2.98486,7.125    c2.13086,3.87989,5.15381,4.474121,6.801761,4.474121h0.00293l0.22754-0.00341    c2.654366-0.040703,5.156778-1.245667,6.843749-3.29541c0.63801-0.774113,1.170025-1.629791,1.582001-2.544441    c3.51416,3.893559,6.93652,4.411621,9.38623,4.025391c2.476728-0.468891,4.610573-2.028294,5.80957-4.245602    c2.988667,2.47039,6.784981,3.748924,10.65921,3.58984c3.107468-0.16848,6.114361-1.159653,8.712891-2.87207    c0.06543,0.080078,0.131828,0.15918,0.201172,0.237789c0.127098,0.252563,0.267262,0.498341,0.419922,0.736328    c1.243187,1.938572,3.210346,3.299129,5.462891,3.77832c4.685593,1.010853,9.303482-1.968113,10.314339-6.653709    c0.485641-2.251095,0.05674-4.602913-1.192276-6.537657c-0.036133-0.05567-0.072258-0.11084-0.110352-0.166    C71.039268,29.56061,73.125198,26.17779,73.900589,20.19537z"/><path class="st2" d="M45.068901,5.71076c5.766338-0.32836,14.529289,5.29417,13.930771,16.504601    s-7.891811,16.41548-14.201,16.728418c-5.692608,0.28236-13.275139-4.070709-13.03289-16.01931    C31.96426,13.13543,36.599289,6.19305,45.068901,5.71076z"/><path class="st2" d="M45.952709,14.39505c0.833271-0.426,2.002121,1.747061,1.737709,6.940529    s-1.394581,7.938999-2.305561,8.383739c-0.821999,0.40126-1.841511-1.24312-1.616501-6.75972    C43.95269,18.44006,44.728802,15.02071,45.952709,14.39505z"/><path class="st2" d="M9.83921,9.69731c-5.43629,2.03958-7.33615,31.968887,0.75105,31.713848s5.88765-14.97871,5.88765-14.97871    s4.653299,14.275429,11.428001,13.210739c7.766159-1.220501,8.5-32.673111,2.273319-33.152538    c-8.38995-0.646-9.18165,12.797401-9.18165,12.797401S16.58057,7.16811,9.83921,9.69731z"/><path class="st2" d="M66.099503,6.871c-2.667839-0.10192-5.992939,1.14844-7.862801,12.362619    c-1.66946,10.012381,2.267189,10.588381,3.2892,10.62738s6.999207,0.78434,8.41906-10.18S70.052383,7.022,66.099503,6.871z"/><circle class="st2" cx="61.622849" cy="36.335091" r="4.679581"/><path class="st3" d="M43.923641,4.01445C49.689999,3.6861,58.45293,9.30863,57.854401,20.519051    s-7.8918,16.415482-14.201,16.72842c-5.6926,0.282372-13.275139-4.070709-13.032879-16.0193    C30.819,11.43913,35.453999,4.49674,43.923641,4.01445z"/><path class="st2" d="M44.807449,12.69874c0.833271-0.426,2.002121,1.74706,1.737709,6.94054s-1.394581,7.939001-2.305561,8.38373    c-0.821999,0.40127-1.841511-1.24312-1.616508-6.75971C42.80743,16.74375,43.58353,13.32441,44.807449,12.69874z"/><path class="st3" d="M8.69395,8.001c-5.4363,2.03957-7.33616,31.96888,0.75105,31.71384s5.88765-14.97871,5.88765-14.97871    s4.65329,14.275429,11.428001,13.210739c7.766159-1.220501,8.5-32.673111,2.273319-33.152531    c-8.38995-0.646-9.18166,12.79739-9.18166,12.79739S15.43531,5.4718,8.69395,8.001z"/><path class="st3" d="M64.954231,5.17471c-2.667831-0.10193-5.992939,1.14843-7.862789,12.362621    c-1.66946,10.012379,2.267189,10.58831,3.2892,10.627361s6.99921,0.78433,8.419056-10.18S68.90712,5.32573,64.954231,5.17471z"/><circle class="st3" cx="60.477581" cy="34.638779" r="4.679579"/><path class="st4" d="M7.40582,33.380249c0.13032,0.686741,0.275624,1.396847,0.43591,2.130322"/><path class="st4" d="M8.14553,12.64662C7.28618,16.302,5.57248,20.76334,6.877,30.175211"/><path class="st4" d="M28.15819,6.86565c-1.59494,0-3.645571,1.531-4.898729,5.59429"/><path class="st4" d="M45.732609,6.27006c-1.995918-0.426-7.549099,0.11393-9.827579,4.93671"/><path class="st4" d="M59.980999,31.952209c-1.29113-0.31506-3.455688,2.0014-1.443001,4.697601"/><path class="st4" d="M59.320999,16.678881c-0.595901,3.09292-0.868309,7.090731,0.677799,8.9203"/><path class="st4" d="M60.22665,13.21943c-0.129002,0.3519-0.278,0.82608-0.429249,1.38631"/><path class="st4" d="M34.955662,29.77673c1.51276,2.727978,4.264027,4.543709,7.367092,4.862"/></g></g></svg>