<svg width="32" height="28" viewBox="0 0 32 28" fill="none" xmlns="http://www.w3.org/2000/svg">
<path d="M5.11038 2.76851L0.806264 10.8246C0.269142 11.8329 0 12.9394 0 14.0474C0 15.1556 0.269142 16.262 0.806264 17.2702L5.11038 25.3265C5.9037 26.8145 7.45516 27.7439 9.14352 27.7439H13.7153V25.4617H13.7138C12.8704 25.4617 12.0946 24.9977 11.6979 24.2538L7.39543 16.196C7.03585 15.5243 6.85665 14.7867 6.85665 14.0474C6.85665 13.3081 7.03585 12.5705 7.39543 11.899L11.6979 3.84124C12.0946 3.09714 12.8704 2.63328 13.7138 2.63328H13.7153V0.350952H9.14352C7.45516 0.350952 5.9037 1.28049 5.11038 2.76851Z" fill="black"/>
<path d="M31.1937 10.8247L26.8898 2.76857C26.0963 1.28039 24.545 0.351011 22.8567 0.351011H18.2847V2.63318H18.2864C19.1298 2.63318 19.9055 3.0972 20.3021 3.84113L24.6046 11.8989C24.9643 12.5706 25.1432 13.3082 25.1432 14.0475C25.1432 14.7868 24.9643 15.5244 24.6046 16.1961L20.3021 24.2537C19.9055 24.9978 19.1298 25.4616 18.2864 25.4616H18.2847V27.744H22.8567C24.545 27.744 26.0963 26.8146 26.8898 25.3264L31.1937 17.2703C31.7307 16.262 32 15.1555 32 14.0475C32 12.9395 31.7307 11.8329 31.1937 10.8247Z" fill="black"/>
</svg>
